<?xml version="1.0" encoding="UTF-8"?>
<svg xmlns="http://www.w3.org/2000/svg" xmlns:xlink="http://www.w3.org/1999/xlink" width="48px" height="48px" viewBox="0 0 48 48" version="1.1">
<g id="surface1">
<path style=" stroke:none;fill-rule:nonzero;fill:rgb(100%,100%,100%);fill-opacity:1;" d="M 9 3 L 39 3 C 42.300781 3 45 5.699219 45 9 L 45 39 C 45 42.300781 42.300781 45 39 45 L 9 45 C 5.699219 45 3 42.300781 3 39 L 3 9 C 3 5.699219 5.699219 3 9 3 Z M 9 3 "/>
<path style=" stroke:none;fill-rule:evenodd;fill:rgb(0%,0%,0%);fill-opacity:1;" d="M 19.800781 24.148438 L 19.800781 38.699219 C 19.800781 38.851562 19.949219 39.148438 20.25 39.148438 L 26.101562 39.148438 C 26.398438 39.148438 26.550781 39 26.550781 38.699219 L 26.550781 24 L 30.75 24 C 30.898438 24 31.199219 23.851562 31.199219 23.699219 L 31.648438 19.199219 C 31.648438 18.898438 31.5 18.75 31.199219 18.75 L 26.550781 18.75 L 26.550781 15.601562 C 26.550781 14.851562 27.148438 14.25 28.050781 14.25 L 31.351562 14.25 C 31.648438 14.25 31.800781 14.101562 31.800781 13.800781 L 31.800781 9.449219 C 31.5 9.148438 31.351562 9 31.050781 9 L 25.648438 9 C 22.5 9 19.800781 11.398438 19.800781 14.398438 L 19.800781 18.75 L 16.949219 18.75 C 16.648438 18.75 16.5 18.898438 16.5 19.199219 L 16.5 23.699219 C 16.5 23.851562 16.648438 24.148438 16.949219 24.148438 Z M 19.800781 24.148438 "/>
</g>
</svg>
