<?xml version="1.0" encoding="UTF-8"?>
<svg xmlns="http://www.w3.org/2000/svg" xmlns:xlink="http://www.w3.org/1999/xlink" width="48px" height="48px" viewBox="0 0 48 48" version="1.1">
<g id="surface1">
<path style=" stroke:none;fill-rule:nonzero;fill:rgb(100%,100%,100%);fill-opacity:1;" d="M 9 3 L 39 3 C 42.300781 3 45 5.699219 45 9 L 45 39 C 45 42.300781 42.300781 45 39 45 L 9 45 C 5.699219 45 3 42.300781 3 39 L 3 9 C 3 5.699219 5.699219 3 9 3 Z M 9 3 "/>
<path style=" stroke:none;fill-rule:nonzero;fill:rgb(0%,0%,0%);fill-opacity:1;" d="M 31.949219 14.550781 C 31.050781 14.550781 30.148438 15.300781 30.148438 16.351562 C 30.148438 17.398438 30.898438 18.148438 31.949219 18.148438 C 33 18.148438 33.75 17.398438 33.75 16.351562 C 33.601562 15.300781 32.851562 14.550781 31.949219 14.550781 Z M 31.949219 14.550781 "/>
<path style=" stroke:none;fill-rule:nonzero;fill:rgb(0%,0%,0%);fill-opacity:1;" d="M 24 16.800781 C 19.949219 16.800781 16.648438 20.101562 16.648438 24.148438 C 16.648438 28.199219 19.949219 31.5 24 31.5 C 28.050781 31.5 31.351562 28.199219 31.351562 24.148438 C 31.5 20.101562 28.199219 16.800781 24 16.800781 Z M 24 28.949219 C 21.449219 28.949219 19.199219 26.851562 19.199219 24.148438 C 19.199219 21.601562 21.300781 19.351562 24 19.351562 C 26.550781 19.351562 28.800781 21.449219 28.800781 24.148438 C 28.800781 26.851562 26.699219 28.949219 24 28.949219 Z M 24 28.949219 "/>
<path style=" stroke:none;fill-rule:nonzero;fill:rgb(0%,0%,0%);fill-opacity:1;" d="M 30 9 L 18 9 C 13.050781 9 9 13.050781 9 18 L 9 30 C 9 34.949219 13.050781 39 18 39 L 30 39 C 34.949219 39 39 34.949219 39 30 L 39 18 C 39 13.050781 34.949219 9 30 9 Z M 36.148438 30 C 36.148438 33.449219 33.300781 36.148438 30 36.148438 L 18 36.148438 C 14.550781 36.148438 11.851562 33.300781 11.851562 30 L 11.851562 18 C 11.851562 14.550781 14.699219 11.851562 18 11.851562 L 30 11.851562 C 33.449219 11.851562 36.148438 14.699219 36.148438 18 Z M 36.148438 30 "/>
</g>
</svg>
